<?xml version="1.0" standalone="no"?>
<!DOCTYPE svg PUBLIC "-//W3C//DTD SVG 20010904//EN"
 "http://www.w3.org/TR/2001/REC-SVG-20010904/DTD/svg10.dtd">
<svg version="1.0" xmlns="http://www.w3.org/2000/svg"
 width="1000.000000pt" height="1000.000000pt" viewBox="0 0 1000.000000 1000.000000"
 preserveAspectRatio="xMidYMid meet">
<metadata>
Created by potrace 1.14, written by Peter Selinger 2001-2017
</metadata>
<g transform="translate(0.000000,1000.000000) scale(0.100000,-0.100000)"
fill="#000000" stroke="none">
<path d="M920 5010 l0 -2230 490 0 490 0 2 1306 3 1307 660 -1072 660 -1071
236 0 235 0 517 857 517 857 0 788 c0 433 -2 788 -4 788 -2 0 -284 -466 -627
-1035 l-622 -1036 -54 88 c-29 48 -410 672 -845 1386 l-792 1297 -433 0 -433
0 0 -2230z"/>
<path d="M5086 7146 l-56 -94 0 -2136 0 -2136 493 0 492 0 -2 1327 c-1 731 -5
1734 -9 2231 l-6 902 -428 0 -428 0 -56 -94z"/>
<path d="M6230 6767 l0 -475 423 -5 c382 -4 431 -6 512 -25 272 -63 460 -166
651 -356 254 -253 375 -542 375 -896 0 -203 -34 -359 -116 -538 -80 -172 -238
-364 -400 -484 -141 -106 -365 -203 -554 -239 -32 -6 -237 -13 -473 -16 l-418
-5 0 -475 0 -475 463 5 c414 4 474 7 574 26 263 49 431 104 648 210 967 477
1454 1569 1159 2598 -212 745 -809 1332 -1564 1539 -258 71 -314 77 -822 81
l-458 5 0 -475z"/>
</g>
</svg>
