<svg id="Groupe_1" data-name="Groupe 1" xmlns="http://www.w3.org/2000/svg" width="515.813" height="667.656" viewBox="0 0 515.813 667.656">
  <metadata><?xpacket begin="﻿" id="W5M0MpCehiHzreSzNTczkc9d"?>
<x:xmpmeta xmlns:x="adobe:ns:meta/" x:xmptk="Adobe XMP Core 5.6-c142 79.160924, 2017/07/13-01:06:39        ">
   <rdf:RDF xmlns:rdf="http://www.w3.org/1999/02/22-rdf-syntax-ns#">
      <rdf:Description rdf:about=""/>
   </rdf:RDF>
</x:xmpmeta>
                                                                                                    
                                                                                                    
                                                                                                    
                                                                                                    
                                                                                                    
                                                                                                    
                                                                                                    
                                                                                                    
                                                                                                    
                                                                                                    
                                                                                                    
                                                                                                    
                                                                                                    
                                                                                                    
                                                                                                    
                                                                                                    
                                                                                                    
                                                                                                    
                                                                                                    
                                                                                                    
                           
<?xpacket end="w"?></metadata>
<defs>
    <style>
      .cls-1 {
        fill: #8b46e7;
      }

      .cls-1, .cls-2 {
        fill-rule: evenodd;
      }

      .cls-2 {
        fill: #001974;
      }
    </style>
  </defs>
  <path id="s" class="cls-1" d="M242.152,736.593C286.7,797.343,378.5,840.543,494.6,840.543c149.851,0,244.351-74.25,244.351-184.95,0-217.351-324-144.451-324-276.752,0-45.9,35.1-76.95,105.3-78.3,45.9-1.35,97.2,20.25,132.3,55.35l72.9-82.35c-41.85-43.2-118.8-79.65-210.6-79.65-144.451,0-234.9,76.95-234.9,190.35,0,222.751,319.952,155.251,319.952,274.052,0,45.9-39.15,76.95-114.751,76.95-60.75,0-114.75-21.6-160.65-79.65Z" transform="translate(-223.156 -172.875)"/>
  <path id="s-2" data-name="s" class="cls-2" d="M223.152,715.593C267.7,776.343,359.5,819.543,475.6,819.543c149.851,0,244.351-74.25,244.351-184.95,0-217.351-324-144.451-324-276.752,0-45.9,35.1-76.95,105.3-78.3,45.9-1.35,97.2,20.25,132.3,55.35l72.9-82.35c-41.85-43.2-118.8-79.65-210.6-79.65-144.451,0-234.9,76.95-234.9,190.35,0,222.751,319.952,155.251,319.952,274.052,0,45.9-39.15,76.95-114.751,76.95-60.75,0-114.75-21.6-160.65-79.65Z" transform="translate(-223.156 -172.875)"/>
</svg>
